<svg xmlns="http://www.w3.org/2000/svg" viewBox="0 0 228 476">
    <path
        fill="black"
        d="M 169.68,124.74
           C 169.61,124.81 169.53,124.87 169.45,124.94
             165.25,128.97 160.59,132.49 155.56,135.49
             143.98,142.41 130.49,146.46 116.02,146.46
             100.06,146.46 85.24,141.62 72.93,133.34
             69.23,130.85 65.80,128.02 62.59,124.94
             62.50,124.85 62.41,124.78 62.32,124.69
             62.02,124.67 61.82,124.56 61.50,124.56
             45.74,124.56 16.69,148.50 16.69,172.43
             16.69,172.43 16.69,315.79 16.69,315.79
             16.69,328.75 29.46,339.25 45.23,339.25
             46.04,339.25 46.79,339.11 47.58,339.06
             47.60,340.42 47.75,341.76 47.99,343.06
             47.76,344.30 47.55,345.54 47.55,346.84
             47.55,346.84 47.55,445.49 47.55,445.49
             47.55,458.97 59.98,476.00 75.56,476.00
             75.56,476.00 80.07,476.00 80.07,476.00
             95.64,476.00 108.13,458.97 108.13,445.49
             108.13,445.49 108.13,363.10 108.13,363.10
             108.13,363.10 123.92,363.10 123.92,363.10
             123.92,363.10 123.92,447.52 123.92,447.52
             123.92,461.00 136.37,476.00 151.74,476.00
             151.74,476.00 156.12,476.00 156.12,476.00
             171.49,476.00 183.72,461.00 183.72,447.52
             183.72,447.52 183.72,348.86 183.72,348.86
             183.72,347.79 183.51,346.76 183.36,345.72
             183.99,343.64 184.42,341.47 184.46,339.19
             199.95,338.93 212.42,328.57 212.42,315.78
             212.42,315.78 212.42,172.42 212.42,172.42
             212.43,149.49 185.77,126.61 169.68,124.74 Z
           M 72.80,123.07
           C 84.66,132.59 99.68,138.32 116.03,138.32
             132.38,138.32 147.40,132.59 159.25,123.07
             175.04,110.38 185.19,90.94 185.19,69.16
             185.19,31.03 154.16,0.00 116.03,0.00
             77.89,0.00 46.86,31.03 46.86,69.16
             46.86,90.94 57.01,110.38 72.80,123.07 Z"
    />
</svg>
