<?xml version="1.0" standalone="no"?>
<!DOCTYPE svg PUBLIC "-//W3C//DTD SVG 20010904//EN"
 "http://www.w3.org/TR/2001/REC-SVG-20010904/DTD/svg10.dtd">
<svg version="1.0" xmlns="http://www.w3.org/2000/svg"
 width="512.000000pt" height="512.000000pt" viewBox="0 0 512.000000 512.000000"
 preserveAspectRatio="xMidYMid meet">
<metadata>
Created by potrace 1.14, written by Peter Selinger 2001-2017
</metadata>
<g transform="translate(0.000000,512.000000) scale(0.100000,-0.100000)"
fill="#000000" stroke="none">
<path d="M2355 4021 l-190 -77 -3 -70 c-1 -39 -8 -73 -15 -79 -12 -10 -22 -55
-11 -55 2 0 23 9 44 20 27 14 40 27 40 40 0 17 5 19 25 14 14 -3 25 -2 25 4 0
11 48 4 56 -9 6 -11 25 -12 21 -1 -2 8 6 12 24 12 6 0 9 -9 6 -20 -3 -11 -1
-18 4 -14 20 12 6 36 -38 64 -26 17 -44 30 -41 30 18 0 127 -54 123 -60 -3 -5
3 -6 14 -3 12 3 29 -6 47 -24 15 -15 22 -20 15 -10 -16 20 -11 21 24 5 19 -8
22 -14 13 -20 -9 -6 -6 -7 8 -4 13 4 51 -8 100 -30 111 -50 130 -59 204 -89
36 -15 78 -34 95 -42 l29 -16 -54 -28 c-31 -16 -63 -25 -74 -22 -12 3 -16 1
-12 -6 7 -11 -56 -43 -400 -206 l-111 -53 -147 75 c-305 154 -428 220 -428
229 0 4 71 39 158 75 87 37 163 75 170 83 13 19 29 22 18 4 -5 -9 -2 -9 9 1 9
7 17 19 16 25 0 8 -2 8 -5 0 -3 -6 -15 -9 -27 -7 -13 2 -101 -28 -207 -71
-102 -42 -191 -76 -198 -76 -7 0 -44 16 -82 35 -38 19 -76 35 -85 35 -18 0
-516 -198 -529 -210 -7 -7 214 -1596 232 -1662 5 -21 87 -91 325 -278 175
-137 321 -250 325 -250 4 0 61 36 126 80 l120 79 30 -22 c17 -13 118 -88 224
-166 l192 -143 113 83 c61 45 124 91 139 102 l26 19 122 -85 123 -86 66 52
c630 493 750 591 755 616 17 79 237 1645 233 1655 -3 6 -139 65 -303 130 -165
65 -518 206 -786 312 -267 107 -490 194 -495 193 -4 0 -93 -35 -198 -78z
m1189 -522 c77 -33 142 -61 144 -63 3 -4 -163 -97 -286 -161 -47 -24 -56 -26
-82 -15 -17 7 -31 18 -32 24 -1 6 -2 73 -2 148 -1 104 2 138 12 138 6 0 12 7
12 15 0 12 9 11 48 -7 26 -11 110 -47 186 -79z m-274 41 c0 -5 -5 -10 -11 -10
-5 0 -7 5 -4 10 3 6 8 10 11 10 2 0 4 -4 4 -10z m-47 -142 c-3 -46 -7 -85 -9
-87 -5 -5 -166 68 -179 81 -7 7 -7 9 0 6 6 -3 48 13 95 37 47 23 88 43 92 44
4 0 4 -36 1 -81z m-1691 -540 l63 -43 6 -70 c4 -38 10 -105 14 -147 5 -52 4
-78 -3 -78 -6 0 -14 5 -18 12 -5 7 -3 8 6 3 9 -5 11 -4 6 4 -6 9 -11 9 -21 1
-9 -8 -14 -6 -19 5 -3 9 -10 14 -14 11 -13 -8 -74 33 -67 44 4 6 -1 7 -11 3
-11 -4 -22 1 -31 13 -8 10 -18 19 -23 19 -6 0 -10 3 -10 8 0 4 0 12 0 18 0 5
4 8 9 5 5 -3 14 1 21 9 10 13 9 15 -9 15 -14 0 -21 6 -21 20 0 14 5 18 17 13
12 -5 14 -3 7 8 -15 24 -13 38 4 32 14 -5 13 -2 -3 17 -11 13 -15 20 -9 17 7
-4 15 0 18 9 4 10 2 13 -6 8 -7 -5 -8 -3 -2 7 9 15 10 20 12 57 1 12 6 22 11
22 5 0 38 -19 73 -42z m458 -72 c52 -32 98 -61 103 -65 12 -12 14 -35 22 -256
6 -175 5 -207 -7 -199 -38 29 -128 84 -137 84 -6 0 -11 4 -11 9 0 5 -24 24
-52 41 -78 45 -90 53 -111 72 -19 17 -19 18 18 39 l37 22 -6 76 c-3 42 -9 121
-12 175 l-7 99 34 -20 c19 -11 77 -46 129 -77z m952 -275 l-4 -69 -54 -36
c-62 -41 -63 -42 -59 -18 2 9 4 41 4 70 1 52 1 52 54 87 28 19 54 34 57 35 3
0 4 -31 2 -69z m722 -178 c-16 -170 -18 -178 -42 -181 -21 -3 -22 -5 -7 -16
23 -16 10 -43 -31 -62 -19 -9 -32 -19 -29 -22 6 -7 -51 -42 -68 -42 -8 0 -7 4
3 10 9 6 10 10 3 10 -18 0 -25 -18 -11 -29 7 -6 26 -21 41 -33 l28 -23 -46
-33 c-52 -37 -51 -36 -54 -19 -9 51 -11 127 -4 127 4 0 9 44 11 97 2 54 7 103
10 110 5 9 191 143 198 143 1 0 0 -17 -2 -37z m-2134 -94 c49 -33 93 -65 97
-72 3 -6 10 -51 15 -101 16 -160 24 -261 22 -264 -1 -2 -18 11 -37 27 -19 17
-38 31 -42 31 -3 0 -12 6 -19 13 -7 6 -28 23 -46 37 -18 14 -39 31 -46 38 -7
6 -16 12 -21 12 -18 0 -75 58 -64 64 6 4 9 12 6 17 -4 5 1 9 9 9 9 0 15 3 15
8 -3 20 2 32 14 30 18 -4 20 53 5 109 -8 26 -13 54 -12 61 1 6 2 19 3 27 0 8
3 15 6 15 3 0 46 -27 95 -61z m-90 -129 c0 -5 -5 -10 -11 -10 -5 0 -7 5 -4 10
3 6 8 10 11 10 2 0 4 -4 4 -10z m558 -589 l53 -39 -48 -35 c-26 -19 -50 -34
-52 -31 -7 6 -17 144 -11 144 4 0 30 -17 58 -39z m1012 -148 c0 -74 -9 -90
-37 -64 -11 11 -23 18 -25 16 -2 -2 -14 4 -27 14 l-23 18 48 36 c27 20 52 37
57 37 4 0 7 -26 7 -57z"/>
<path d="M3602 2178 c3 -7 12 -14 22 -14 13 -2 13 -1 1 3 -8 2 -13 9 -10 14 4
5 1 9 -5 9 -7 0 -10 -6 -8 -12z"/>
<path d="M3476 2132 c-3 -5 1 -9 9 -9 8 0 12 4 9 9 -3 4 -7 8 -9 8 -2 0 -6 -4
-9 -8z"/>
<path d="M3574 2121 c4 -5 0 -11 -6 -14 -10 -3 -10 -8 1 -18 11 -12 13 -12 6
0 -6 10 -2 12 13 7 15 -5 21 -1 25 16 6 22 5 22 -8 4 -13 -17 -15 -18 -15 -3
0 9 -5 17 -11 17 -5 0 -8 -4 -5 -9z"/>
<path d="M1567 1989 c7 -7 15 -10 18 -7 3 3 -2 9 -12 12 -14 6 -15 5 -6 -5z"/>
<path d="M2285 3789 c6 -33 15 -36 15 -6 0 15 -4 27 -9 27 -6 0 -8 -10 -6 -21z"/>
<path d="M2363 3755 c0 -8 4 -12 9 -9 5 3 6 10 3 15 -9 13 -12 11 -12 -6z"/>
</g>
</svg>
