<svg xmlns="http://www.w3.org/2000/svg" viewBox="0 0 100 100" fill="none">
    <path
        fill-rule="evenodd"
        clip-rule="evenodd"
        d="M27.0013 47.5994C25.6662 48.9252 25.6662 51.0748 27.0013 52.4006L48.7567 74.0056C50.0917 75.3315 52.2562 75.3315 53.5912 74.0056C54.9262 72.6798 54.9262 70.5303 53.5912 69.2045L34.2531 50L53.5912 30.7955C54.9262 29.4697 54.9262 27.3201 53.5912 25.9943C52.2562 24.6686 50.0917 24.6686 48.7567 25.9943L27.0013 47.5994ZM45.4088 47.5994L67.1642 25.9943C68.4992 24.6686 70.6637 24.6686 71.9987 25.9943C73.3338 27.3201 73.3338 29.4697 71.9987 30.7955L52.6606 50L71.9987 69.2045C73.3338 70.5303 73.3338 72.6798 71.9987 74.0056C70.6637 75.3315 68.4992 75.3315 67.1642 74.0056L45.4088 52.4006C44.0737 51.0748 44.0737 48.9252 45.4088 47.5994Z"
        fill="black"
    />
</svg>
