<svg xmlns="http://www.w3.org/2000/svg" viewBox="0 0 512 512" fill="#ffffff">
    <path
        d="M192 134.073C192 84 192 84 255.5 84V315.837L192 315.837V134.073Z"
    />

    <path
        d="M255.5 327.855L169 327.854C162 327.854 160.5 329.357 160.5 341.374C160.5 353.392 162 355.395 169 355.395L212.735 355.395C211.429 355.82 210.336 356.317 209.5 356.897C143.5 417.485 201 364.908 136.5 423.994C136.5 428 136.5 428 141.5 428H177C179.175 426.548 241.907 368.483 253.625 355.395H255.5V352.891V327.855Z"
    />

    <path
        d="M282 146H318.5V161H282V174H318.5V189H282V202H318.5V217H282V230H318.5V245H282V258H318.5V273H282V286H318.5V315.837L255 315.837V84C318.043 84 318.497 84 318.5 133H282V146Z"
    />

    <path
        d="M255 327.855L341.5 327.854C348.5 327.854 350 329.357 350 341.374C350 353.392 348.5 355.395 341.5 355.395L297.765 355.395C299.071 355.82 300.164 356.317 301 356.897C333.386 386.627 336.035 389.109 337.954 390.907C339.945 392.773 341.15 393.902 374 423.994C374 425.849 374 426.845 373.503 427.38C372.928 428 371.685 428 369 428H333.5C331.325 426.548 268.593 368.483 256.875 355.395H255V352.891V327.855Z"
    />
</svg>
