<svg xmlns="http://www.w3.org/2000/svg" viewBox="0 0 100 100" fill="none">
    <path
        d="M90.8562 41.8396H87.4999V41.6667H49.9999V58.3334H73.5478C70.1124 68.0355 60.8812 75 49.9999 75C36.1937 75 24.9999 63.8063 24.9999 50C24.9999 36.1938 36.1937 25 49.9999 25C56.3728 25 62.1707 27.4042 66.5853 31.3313L78.3708 19.5459C70.9291 12.6105 60.9749 8.33337 49.9999 8.33337C26.9895 8.33337 8.33325 26.9896 8.33325 50C8.33325 73.0105 26.9895 91.6667 49.9999 91.6667C73.0103 91.6667 91.6666 73.0105 91.6666 50C91.6666 47.2063 91.3791 44.4792 90.8562 41.8396Z"
        fill="#FFC107"
    />

    <path
        d="M13.1375 30.6063L26.827 40.6459C30.5312 31.475 39.502 25 50 25C56.3729 25 62.1708 27.4042 66.5854 31.3313L78.3708 19.5459C70.9291 12.6105 60.9749 8.33337 50 8.33337C33.9958 8.33337 20.1166 17.3688 13.1375 30.6063Z"
        fill="#FF3D00"
    />

    <path
        d="M50 91.6666C60.7625 91.6666 70.5417 87.5479 77.9354 80.85L65.0396 69.9375C60.8562 73.1062 55.6562 75 50 75C39.1625 75 29.9604 68.0896 26.4937 58.4458L12.9062 68.9145C19.8021 82.4083 33.8062 91.6666 50 91.6666Z"
        fill="#4CAF50"
    />

    <path
        d="M90.8562 41.8395H87.5V41.6666H50V58.3333H73.5479C71.8979 62.9937 68.9 67.0125 65.0333 69.9395L65.0396 69.9354L77.9354 80.8479C77.0229 81.677 91.6667 70.8333 91.6667 50C91.6667 47.2062 91.3792 44.4791 90.8562 41.8395Z"
        fill="#1976D2"
    />
</svg>
